<?xml version="1.0" encoding="UTF-8"?>
<svg width="40" height="40" viewBox="0 0 40 40" fill="none" xmlns="http://www.w3.org/2000/svg">
  <!-- Fondo circular -->
  <circle cx="20" cy="20" r="18" fill="#4CAF50" stroke="white" stroke-width="2"/>
 
  <!-- Silueta del camión -->
  <path d="M10 22h14v-8H10v8zm14-10h4l4 4v6h-2c0 1.66-1.34 3-3 3s-3-1.34-3-3h-6c0 1.66-1.34 3-3 3s-3-1.34-3-3H10v-2h14v-8zm-11 9c.55 0 1 .45 1 1s-.45 1-1 1-1-.45-1-1 .45-1 1-1zm11 0c.55 0 1 .45 1 1s-.45 1-1 1-1-.45-1-1 .45-1 1-1z" 
        fill="white"/>
</svg> 